<svg xmlns="http://www.w3.org/2000/svg" width="47.999" height="14.465" viewBox="0 0 47.999 14.465">
  <g id="Amazon_logo" transform="translate(0 0)">
    <path id="path8" d="M163.716,194.35A18.285,18.285,0,0,1,153.4,197.5a18.662,18.662,0,0,1-12.6-4.808c-.261-.236-.027-.558.286-.374a25.357,25.357,0,0,0,12.605,3.343,25.065,25.065,0,0,0,9.615-1.966c.472-.2.867.309.405.652" transform="translate(-133.938 -183.038)" fill="#f90" fill-rule="evenodd"/>
    <path id="path10" d="M575.379,183.073c-.355-.455-2.357-.215-3.255-.109-.274.033-.315-.2-.069-.376,1.594-1.122,4.21-.8,4.515-.422s-.079,3-1.578,4.252c-.23.192-.449.09-.347-.165.336-.84,1.091-2.722.733-3.18" transform="translate(-544.441 -173.088)" fill="#f90" fill-rule="evenodd"/>
    <path id="path12" d="M572.515,5.807V4.716a.269.269,0,0,1,.276-.276h4.883a.272.272,0,0,1,.282.276V5.65a1.536,1.536,0,0,1-.368.685l-2.53,3.612a5.391,5.391,0,0,1,2.785.6.5.5,0,0,1,.259.424v1.164c0,.159-.175.345-.359.249a5.625,5.625,0,0,0-5.159.008c-.169.092-.347-.092-.347-.251V11.034a1.319,1.319,0,0,1,.18-.75l2.931-4.2H572.8a.27.27,0,0,1-.282-.274" transform="translate(-544.77 -4.227)" fill-rule="evenodd"/>
    <path id="path14" d="M172.212,9.835h-1.486a.281.281,0,0,1-.265-.253V1.958a.279.279,0,0,1,.286-.274h1.385a.28.28,0,0,1,.27.255v1h.027a2.041,2.041,0,0,1,3.884,0,2.194,2.194,0,0,1,3.771-.579,4.057,4.057,0,0,1,.374,2.39l0,4.812a.281.281,0,0,1-.286.276h-1.483a.282.282,0,0,1-.267-.276V5.519a9.542,9.542,0,0,0-.042-1.429.774.774,0,0,0-.873-.656.987.987,0,0,0-.888.625,4.615,4.615,0,0,0-.138,1.46V9.559a.281.281,0,0,1-.286.276h-1.483a.281.281,0,0,1-.267-.276l0-4.041c0-.85.14-2.1-.915-2.1s-1.026,1.22-1.026,2.1V9.559a.281.281,0,0,1-.286.276" transform="translate(-162.279 -1.45)" fill-rule="evenodd"/>
    <path id="path16" d="M712.654,1.524c2.2,0,3.4,1.893,3.4,4.3,0,2.325-1.318,4.17-3.4,4.17-2.165,0-3.343-1.893-3.343-4.252s1.193-4.218,3.343-4.218m.013,1.557c-1.095,0-1.164,1.492-1.164,2.422s-.015,2.921,1.151,2.921,1.206-1.6,1.206-2.582a7.047,7.047,0,0,0-.221-2.022.929.929,0,0,0-.972-.738" transform="translate(-675.265 -1.45)" fill-rule="evenodd"/>
    <path id="path18" d="M874.6,9.835H873.12a.282.282,0,0,1-.267-.276l0-7.626a.281.281,0,0,1,.286-.249h1.377a.284.284,0,0,1,.265.213V3.064h.027a2.021,2.021,0,0,1,2.025-1.54,1.949,1.949,0,0,1,1.734.9,4.846,4.846,0,0,1,.389,2.374v4.8a.285.285,0,0,1-.286.24h-1.49a.281.281,0,0,1-.263-.24V5.454c0-.834.1-2.054-.93-2.054a.971.971,0,0,0-.859.61,3.374,3.374,0,0,0-.236,1.444V9.559a.286.286,0,0,1-.29.276" transform="translate(-830.955 -1.45)" fill-rule="evenodd"/>
    <path id="path28" d="M410.114,4.743a2.906,2.906,0,0,1-.278,1.575,1.207,1.207,0,0,1-1.028.675c-.57,0-.9-.435-.9-1.076,0-1.266,1.135-1.5,2.211-1.5v.322m1.5,3.621a.31.31,0,0,1-.351.036,3.621,3.621,0,0,1-.852-.99,2.942,2.942,0,0,1-2.449,1.08,2.107,2.107,0,0,1-2.223-2.315,2.521,2.521,0,0,1,1.584-2.428,10.293,10.293,0,0,1,2.793-.516V3.038a1.9,1.9,0,0,0-.182-1.076.989.989,0,0,0-.834-.387,1.13,1.13,0,0,0-1.193.892.311.311,0,0,1-.259.272l-1.44-.155a.262.262,0,0,1-.221-.311C406.316.527,407.9,0,409.308,0a3.368,3.368,0,0,1,2.238.74c.723.675.654,1.575.654,2.555V5.61a2.032,2.032,0,0,0,.56,1.377.281.281,0,0,1-.006.395c-.3.253-.842.723-1.139.986l0,0" transform="translate(-386.262)" fill-rule="evenodd"/>
    <path id="path30" d="M4.377,4.743A2.906,2.906,0,0,1,4.1,6.318a1.2,1.2,0,0,1-1.028.675c-.57,0-.9-.435-.9-1.076,0-1.266,1.135-1.5,2.208-1.5v.322m1.5,3.621a.31.31,0,0,1-.351.036,3.657,3.657,0,0,1-.852-.99,2.939,2.939,0,0,1-2.449,1.08A2.108,2.108,0,0,1,0,6.174,2.524,2.524,0,0,1,1.584,3.746,10.293,10.293,0,0,1,4.377,3.23V3.038A1.911,1.911,0,0,0,4.2,1.962a.994.994,0,0,0-.834-.387,1.132,1.132,0,0,0-1.2.892.311.311,0,0,1-.257.272L.47,2.585a.263.263,0,0,1-.221-.311C.581.527,2.158,0,3.571,0A3.368,3.368,0,0,1,5.808.74c.723.675.654,1.575.654,2.555V5.61a2.032,2.032,0,0,0,.56,1.377.279.279,0,0,1,0,.395c-.3.253-.842.723-1.139.986l0,0" fill-rule="evenodd"/>
  </g>
</svg>
